<?xml version="1.0" encoding="UTF-8" standalone="no" ?>
<!DOCTYPE svg PUBLIC "-//W3C//DTD SVG 1.1//EN" "http://www.w3.org/Graphics/SVG/1.1/DTD/svg11.dtd">
<svg xmlns="http://www.w3.org/2000/svg" xmlns:xlink="http://www.w3.org/1999/xlink" version="1.1" width="500" height="500" viewBox="0 0 500 500" xml:space="preserve">
<desc>Created with Fabric.js 5.3.0</desc>
<defs>
</defs>
<g transform="matrix(1 0 0 1 396.4517593644 133.1872871737)" id="yyYqIh0b-KL8hAgBYZ0mL"  >
<path style="stroke: rgb(22,42,57); stroke-width: 20; stroke-dasharray: none; stroke-linecap: butt; stroke-dashoffset: 0; stroke-linejoin: miter; stroke-miterlimit: 4; fill: rgb(254,125,140); fill-rule: nonzero; opacity: 1;" vector-effect="non-scaling-stroke"  transform=" translate(-33.1259960778, -33.1259960778)" d="M 33.12599 0 C 51.41154 0 66.25198 14.84045 66.25198 33.12599 C 66.25198 51.41154 51.41153 66.25198 33.12599 66.25198 C 14.840440000000001 66.25198 0 51.41153 0 33.12599 C 0 14.840440000000001 14.84045 0 33.12599 0 z" stroke-linecap="round" />
</g>
<g transform="matrix(1 0 0 1 105.412031782 133.1872932514)" id="IFX7_1LoRu_uOSrah8WQj"  >
<path style="stroke: rgb(22,42,57); stroke-width: 20; stroke-dasharray: none; stroke-linecap: butt; stroke-dashoffset: 0; stroke-linejoin: miter; stroke-miterlimit: 4; fill: rgb(254,125,140); fill-opacity: 0; fill-rule: nonzero; opacity: 1;" vector-effect="non-scaling-stroke"  transform=" translate(-33.12599, -33.12599)" d="M 33.12599 0 C 51.41154 0 66.25198 14.84045 66.25198 33.12599 C 66.25198 51.41154 51.41153 66.25198 33.12599 66.25198 C 14.840440000000001 66.25198 0 51.41153 0 33.12599 C 0 14.840440000000001 14.84045 0 33.12599 0 z" stroke-linecap="round" />
</g>
<g transform="matrix(1 0 0 1 250 355.4301929626)" id="b90nFTrLREMUSd2xL7fxG"  >
<path style="stroke: rgb(22,42,57); stroke-width: 20; stroke-dasharray: none; stroke-linecap: butt; stroke-dashoffset: 0; stroke-linejoin: miter; stroke-miterlimit: 4; fill: rgb(254,125,140); fill-rule: nonzero; opacity: 1;" vector-effect="non-scaling-stroke"  transform=" translate(0, 0)" d="M 0 -33.12599 C 18.28555 -33.12599 33.12599 -18.28554 33.12599 0 C 33.12599 18.28555 18.28554 33.12599 0 33.12599 C -18.28555 33.12599 -33.12599 18.28554 -33.12599 0 C -33.12599 -18.28555 -18.28554 -33.12599 0 -33.12599 z" stroke-linecap="round" />
</g>
<g transform="matrix(2.1255260173 1.4336854014 -0.1641652534 0.2433849971 190.5873427249 190.3440414957)" id="eKoGqjBNGSjPnwebBysKp"  >
<path style="stroke: rgb(22,42,57); stroke-width: 0; stroke-dasharray: none; stroke-linecap: butt; stroke-dashoffset: 0; stroke-linejoin: miter; stroke-miterlimit: 4; fill: rgb(22,42,57); fill-rule: nonzero; opacity: 1;" vector-effect="non-scaling-stroke"  transform=" translate(0, 0)" d="M -29.05789 -29.05789 L 29.05789 -29.05789 L 29.05789 29.05789 L -29.05789 29.05789 z" stroke-linecap="round" />
</g>
<g transform="matrix(2.1287774379 -1.4358785123 0.1635748445 0.2425096798 312.016828492 189.5218117891)" id="5T1sUuKrEO92J5IZfVST1"  >
<path style="stroke: rgb(22,42,57); stroke-width: 0; stroke-dasharray: none; stroke-linecap: butt; stroke-dashoffset: 0; stroke-linejoin: miter; stroke-miterlimit: 4; fill: rgb(22,42,57); fill-rule: nonzero; opacity: 1;" vector-effect="non-scaling-stroke"  transform=" translate(0, 0)" d="M -29.05789 -29.05789 L 29.05789 -29.05789 L 29.05789 29.05789 L -29.05789 29.05789 z" stroke-linecap="round" />
</g>
<g transform="matrix(0 1.5934915949 -0.2925195285 0 250.7173125153 277.626459144)" id="MfwawxD9FFqWuZBxGw8_o"  >
<path style="stroke: rgb(22,42,57); stroke-width: 0; stroke-dasharray: none; stroke-linecap: butt; stroke-dashoffset: 0; stroke-linejoin: miter; stroke-miterlimit: 4; fill: rgb(22,42,57); fill-rule: nonzero; opacity: 1;" vector-effect="non-scaling-stroke"  transform=" translate(0, 0)" d="M -29.05789 -29.05789 L 29.05789 -29.05789 L 29.05789 29.05789 L -29.05789 29.05789 z" stroke-linecap="round" />
</g>
<g transform="matrix(0.2979931015 0 0 0.2844657626 250.7173125153 230.5447470817)" id="HQUQterw_s0-C2p8hqQDn"  >
<path style="stroke: rgb(22,42,57); stroke-width: 0; stroke-dasharray: none; stroke-linecap: butt; stroke-dashoffset: 0; stroke-linejoin: miter; stroke-miterlimit: 4; fill: rgb(22,42,57); fill-rule: nonzero; opacity: 1;" vector-effect="non-scaling-stroke"  transform=" translate(0, 0)" d="M 0 -36.93181 C 20.38636 -36.93181 36.93181 -20.38636 36.93181 0 C 36.93181 20.38636 20.38636 36.93181 0 36.93181 C -20.38636 36.93181 -36.93181 20.38636 -36.93181 0 C -36.93181 -20.38636 -20.38636 -36.93181 0 -36.93181 z" stroke-linecap="round" />
</g>
<g transform="matrix(0.7547095802 0.656059029 -0.5420174988 0.6235198068 242.4799352482 361.2536027836)" id="JoUsRYOHLDkalAxpFMjM2"  >
<path style="stroke: rgb(22,42,57); stroke-width: 0; stroke-dasharray: none; stroke-linecap: butt; stroke-dashoffset: 0; stroke-linejoin: miter; stroke-miterlimit: 4; fill: rgb(255,255,255); fill-rule: nonzero; opacity: 1;" vector-effect="non-scaling-stroke"  transform=" translate(0, 0)" d="M 0 -16.60079 C 9.16364 -16.60079 16.60079 -9.163640000000001 16.60079 0 C 16.60079 9.16364 9.163640000000001 16.60079 0 16.60079 C -9.16364 16.60079 -16.60079 9.163640000000001 -16.60079 0 C -16.60079 -9.16364 -9.163640000000001 -16.60079 0 -16.60079 z" stroke-linecap="round" />
</g>
</svg>